<svg xmlns="http://www.w3.org/2000/svg" xmlns:xlink="http://www.w3.org/1999/xlink" width="500" zoomAndPan="magnify" viewBox="0 0 375 374.999991" height="500" preserveAspectRatio="xMidYMid meet" version="1.0"><defs><filter x="0%" y="0%" width="100%" height="100%" id="3e17d2e87b"><feColorMatrix values="0 0 0 0 1 0 0 0 0 1 0 0 0 0 1 0 0 0 1 0" color-interpolation-filters="sRGB"/></filter><g/><mask id="e76fbb557f"><g filter="url(#3e17d2e87b)"><rect x="-37.5" width="450" fill="#000000" y="-37.499999" height="449.999989" fill-opacity="0.9"/></g></mask><clipPath id="b5d1c3acca"><path d="M 12 0.398438 L 24 0.398438 L 24 12 L 12 12 Z M 12 0.398438 " clip-rule="nonzero"/></clipPath><clipPath id="ffb24e8e3e"><path d="M 55 0.398438 L 64 0.398438 L 64 13 L 55 13 Z M 55 0.398438 " clip-rule="nonzero"/></clipPath><clipPath id="7396b9bb1a"><path d="M 80 0.398438 L 89 0.398438 L 89 12 L 80 12 Z M 80 0.398438 " clip-rule="nonzero"/></clipPath><clipPath id="622abe126f"><path d="M 112 0.398438 L 122 0.398438 L 122 12 L 112 12 Z M 112 0.398438 " clip-rule="nonzero"/></clipPath><clipPath id="7a40febfe6"><path d="M 138 0.398438 L 148 0.398438 L 148 12 L 138 12 Z M 138 0.398438 " clip-rule="nonzero"/></clipPath><clipPath id="7feaf681b4"><path d="M 165 0.398438 L 175 0.398438 L 175 12 L 165 12 Z M 165 0.398438 " clip-rule="nonzero"/></clipPath><clipPath id="c7c5ce96c0"><rect x="0" width="180" y="0" height="16"/></clipPath></defs><g fill="#e3bd86" fill-opacity="1"><g transform="translate(22.752689, 92.975919)"><g><path d="M 20.8125 6.921875 C 22.082031 6.921875 23.335938 6.6875 24.578125 6.21875 C 25.816406 5.757812 26.921875 5 27.890625 3.9375 C 28.859375 2.875 29.644531 1.484375 30.25 -0.234375 C 30.851562 -1.953125 31.15625 -4.050781 31.15625 -6.53125 C 31.15625 -9.207031 30.492188 -11.800781 29.171875 -14.3125 C 27.859375 -16.832031 26.207031 -19.304688 24.21875 -21.734375 C 22.226562 -24.171875 20.078125 -26.585938 17.765625 -28.984375 C 15.460938 -31.390625 13.316406 -33.84375 11.328125 -36.34375 C 9.335938 -38.84375 7.679688 -41.421875 6.359375 -44.078125 C 5.046875 -46.734375 4.390625 -49.507812 4.390625 -52.40625 C 4.390625 -55.289062 4.921875 -57.898438 5.984375 -60.234375 C 7.054688 -62.578125 8.503906 -64.566406 10.328125 -66.203125 C 12.160156 -67.847656 14.289062 -69.113281 16.71875 -70 C 19.15625 -70.894531 21.757812 -71.34375 24.53125 -71.34375 C 27.488281 -71.34375 30.117188 -71.03125 32.421875 -70.40625 C 34.734375 -69.789062 36.691406 -68.945312 38.296875 -67.875 C 39.898438 -66.8125 41.113281 -65.554688 41.9375 -64.109375 C 42.769531 -62.660156 43.1875 -61.128906 43.1875 -59.515625 C 43.1875 -58.742188 43.070312 -57.953125 42.84375 -57.140625 C 42.625 -56.335938 42.273438 -55.597656 41.796875 -54.921875 C 41.328125 -54.253906 40.722656 -53.695312 39.984375 -53.25 C 39.253906 -52.8125 38.394531 -52.59375 37.40625 -52.59375 C 36.226562 -52.59375 35.363281 -52.945312 34.8125 -53.65625 C 34.257812 -54.375 33.847656 -55.257812 33.578125 -56.3125 C 33.304688 -57.363281 33.070312 -58.515625 32.875 -59.765625 C 32.6875 -61.023438 32.382812 -62.179688 31.96875 -63.234375 C 31.5625 -64.285156 30.941406 -65.164062 30.109375 -65.875 C 29.285156 -66.59375 28.078125 -66.953125 26.484375 -66.953125 C 25.628906 -66.953125 24.78125 -66.757812 23.9375 -66.375 C 23.09375 -66 22.328125 -65.421875 21.640625 -64.640625 C 20.953125 -63.859375 20.398438 -62.863281 19.984375 -61.65625 C 19.578125 -60.445312 19.375 -59.015625 19.375 -57.359375 C 19.375 -55.453125 19.769531 -53.59375 20.5625 -51.78125 C 21.363281 -49.96875 22.414062 -48.175781 23.71875 -46.40625 C 25.019531 -44.644531 26.503906 -42.878906 28.171875 -41.109375 C 29.847656 -39.347656 31.550781 -37.566406 33.28125 -35.765625 C 35.019531 -33.972656 36.722656 -32.128906 38.390625 -30.234375 C 40.054688 -28.335938 41.539062 -26.367188 42.84375 -24.328125 C 44.15625 -22.296875 45.207031 -20.164062 46 -17.9375 C 46.800781 -15.71875 47.203125 -13.378906 47.203125 -10.921875 C 47.203125 -7.328125 46.507812 -4.125 45.125 -1.3125 C 43.738281 1.5 41.859375 3.867188 39.484375 5.796875 C 37.117188 7.722656 34.34375 9.191406 31.15625 10.203125 C 27.976562 11.222656 24.59375 11.734375 21 11.734375 C 17.75 11.734375 14.875 11.328125 12.375 10.515625 C 9.882812 9.710938 7.78125 8.640625 6.0625 7.296875 C 4.34375 5.960938 3.046875 4.441406 2.171875 2.734375 C 1.296875 1.035156 0.859375 -0.71875 0.859375 -2.53125 C 0.859375 -3.289062 0.976562 -4.109375 1.21875 -4.984375 C 1.457031 -5.859375 1.804688 -6.660156 2.265625 -7.390625 C 2.722656 -8.128906 3.300781 -8.742188 4 -9.234375 C 4.707031 -9.722656 5.519531 -9.96875 6.4375 -9.96875 C 7.394531 -9.96875 8.164062 -9.726562 8.75 -9.25 C 9.34375 -8.78125 9.8125 -8.144531 10.15625 -7.34375 C 10.507812 -6.550781 10.796875 -5.644531 11.015625 -4.625 C 11.242188 -3.613281 11.484375 -2.582031 11.734375 -1.53125 C 11.992188 -0.476562 12.3125 0.554688 12.6875 1.578125 C 13.070312 2.597656 13.597656 3.503906 14.265625 4.296875 C 14.929688 5.085938 15.789062 5.722656 16.84375 6.203125 C 17.894531 6.679688 19.21875 6.921875 20.8125 6.921875 Z M 20.8125 6.921875 "/></g></g></g><g fill="#e3bd86" fill-opacity="1"><g transform="translate(73.003807, 92.975919)"><g><path d="M 2.90625 -24.4375 C 2.90625 -28.601562 3.507812 -32.253906 4.71875 -35.390625 C 5.925781 -38.523438 7.539062 -41.140625 9.5625 -43.234375 C 11.582031 -45.335938 13.925781 -46.910156 16.59375 -47.953125 C 19.269531 -49.003906 22.070312 -49.53125 25 -49.53125 C 27.925781 -49.53125 30.722656 -49.046875 33.390625 -48.078125 C 36.066406 -47.109375 38.414062 -45.617188 40.4375 -43.609375 C 42.457031 -41.609375 44.070312 -39.070312 45.28125 -36 C 46.488281 -32.9375 47.09375 -29.304688 47.09375 -25.109375 C 47.09375 -20.929688 46.488281 -17.234375 45.28125 -14.015625 C 44.070312 -10.804688 42.457031 -8.101562 40.4375 -5.90625 C 38.414062 -3.71875 36.066406 -2.054688 33.390625 -0.921875 C 30.722656 0.203125 27.925781 0.765625 25 0.765625 C 22.070312 0.765625 19.269531 0.234375 16.59375 -0.828125 C 13.925781 -1.898438 11.582031 -3.484375 9.5625 -5.578125 C 7.539062 -7.679688 5.925781 -10.304688 4.71875 -13.453125 C 3.507812 -16.609375 2.90625 -20.269531 2.90625 -24.4375 Z M 32.265625 -24.90625 C 32.265625 -27.457031 32.175781 -29.914062 32 -32.28125 C 31.820312 -34.65625 31.476562 -36.765625 30.96875 -38.609375 C 30.457031 -40.453125 29.722656 -41.921875 28.765625 -43.015625 C 27.816406 -44.117188 26.5625 -44.671875 25 -44.671875 C 23.445312 -44.671875 22.191406 -44.085938 21.234375 -42.921875 C 20.273438 -41.765625 19.539062 -40.238281 19.03125 -38.34375 C 18.53125 -36.445312 18.195312 -34.289062 18.03125 -31.875 C 17.875 -29.457031 17.796875 -26.976562 17.796875 -24.4375 C 17.796875 -21.882812 17.875 -19.390625 18.03125 -16.953125 C 18.195312 -14.523438 18.53125 -12.359375 19.03125 -10.453125 C 19.539062 -8.546875 20.273438 -7.007812 21.234375 -5.84375 C 22.191406 -4.6875 23.445312 -4.109375 25 -4.109375 C 26.5625 -4.109375 27.816406 -4.710938 28.765625 -5.921875 C 29.722656 -7.128906 30.457031 -8.71875 30.96875 -10.6875 C 31.476562 -12.664062 31.820312 -14.894531 32 -17.375 C 32.175781 -19.851562 32.265625 -22.363281 32.265625 -24.90625 Z M 32.265625 -24.90625 "/></g></g></g><g fill="#e3bd86" fill-opacity="1"><g transform="translate(123.064038, 92.975919)"><g><path d="M 40.1875 -8.5 C 40.1875 -7.757812 40.253906 -7.0625 40.390625 -6.40625 C 40.535156 -5.757812 40.820312 -5.195312 41.25 -4.71875 C 41.6875 -4.25 42.273438 -3.867188 43.015625 -3.578125 C 43.765625 -3.296875 44.742188 -3.15625 45.953125 -3.15625 C 47.703125 -3.15625 49.304688 -3.65625 50.765625 -4.65625 C 52.234375 -5.65625 53.492188 -6.941406 54.546875 -8.515625 C 55.597656 -10.085938 56.410156 -11.851562 56.984375 -13.8125 C 57.554688 -15.769531 57.84375 -17.71875 57.84375 -19.65625 C 57.84375 -22.550781 57.453125 -25.101562 56.671875 -27.3125 C 55.890625 -29.53125 54.796875 -31.398438 53.390625 -32.921875 C 51.992188 -34.453125 50.34375 -35.640625 48.4375 -36.484375 C 46.53125 -37.328125 44.460938 -37.8125 42.234375 -37.9375 L 43.1875 -40.375 C 44.582031 -40.3125 45.914062 -40.5 47.1875 -40.9375 C 48.46875 -41.382812 49.59375 -42.164062 50.5625 -43.28125 C 51.53125 -44.394531 52.300781 -45.898438 52.875 -47.796875 C 53.445312 -49.691406 53.734375 -52.066406 53.734375 -54.921875 C 53.734375 -56.867188 53.492188 -58.617188 53.015625 -60.171875 C 52.535156 -61.734375 51.90625 -63.046875 51.125 -64.109375 C 50.351562 -65.179688 49.445312 -66.003906 48.40625 -66.578125 C 47.375 -67.148438 46.316406 -67.4375 45.234375 -67.4375 C 44.566406 -67.4375 43.921875 -67.351562 43.296875 -67.1875 C 42.679688 -67.03125 42.144531 -66.757812 41.6875 -66.375 C 41.226562 -66 40.863281 -65.5 40.59375 -64.875 C 40.320312 -64.257812 40.1875 -63.488281 40.1875 -62.5625 Z M 41.140625 -71.34375 C 50.359375 -71.34375 57.140625 -69.898438 61.484375 -67.015625 C 65.828125 -64.140625 68 -59.953125 68 -54.453125 C 68 -53.085938 67.847656 -51.832031 67.546875 -50.6875 C 67.242188 -49.539062 66.851562 -48.492188 66.375 -47.546875 C 65.90625 -46.609375 65.367188 -45.773438 64.765625 -45.046875 C 64.160156 -44.316406 63.535156 -43.679688 62.890625 -43.140625 C 61.398438 -41.835938 59.71875 -40.820312 57.84375 -40.09375 L 57.84375 -39.375 C 60.800781 -39.019531 63.457031 -38.128906 65.8125 -36.703125 C 66.789062 -36.097656 67.757812 -35.34375 68.71875 -34.4375 C 69.675781 -33.53125 70.523438 -32.429688 71.265625 -31.140625 C 72.015625 -29.847656 72.617188 -28.347656 73.078125 -26.640625 C 73.546875 -24.941406 73.78125 -23 73.78125 -20.8125 C 73.78125 -17.46875 73.175781 -14.457031 71.96875 -11.78125 C 70.757812 -9.113281 68.960938 -6.847656 66.578125 -4.984375 C 64.191406 -3.117188 61.210938 -1.691406 57.640625 -0.703125 C 54.078125 0.273438 49.941406 0.765625 45.234375 0.765625 C 40.878906 0.765625 37.332031 0.492188 34.59375 -0.046875 C 31.863281 -0.585938 29.734375 -1.375 28.203125 -2.40625 C 26.671875 -3.4375 25.628906 -4.679688 25.078125 -6.140625 C 24.523438 -7.609375 24.25 -9.269531 24.25 -11.125 L 24.25 -63.328125 C 24.25 -65.078125 23.035156 -65.953125 20.609375 -65.953125 C 18.859375 -65.953125 17.082031 -65.6875 15.28125 -65.15625 C 13.488281 -64.632812 11.867188 -63.921875 10.421875 -63.015625 C 8.972656 -62.109375 7.785156 -61.023438 6.859375 -59.765625 C 5.941406 -58.515625 5.484375 -57.15625 5.484375 -55.6875 C 5.484375 -54.675781 5.617188 -53.863281 5.890625 -53.25 C 6.160156 -52.644531 6.46875 -52.191406 6.8125 -51.890625 C 7.164062 -51.585938 7.523438 -51.394531 7.890625 -51.3125 C 8.265625 -51.238281 8.53125 -51.203125 8.6875 -51.203125 C 9.476562 -51.203125 10.128906 -51.335938 10.640625 -51.609375 C 11.148438 -51.878906 11.609375 -52.164062 12.015625 -52.46875 C 12.429688 -52.769531 12.820312 -53.054688 13.1875 -53.328125 C 13.5625 -53.597656 13.984375 -53.734375 14.453125 -53.734375 C 14.835938 -53.734375 15.242188 -53.644531 15.671875 -53.46875 C 16.109375 -53.289062 16.507812 -53.007812 16.875 -52.625 C 17.238281 -52.25 17.546875 -51.75 17.796875 -51.125 C 18.054688 -50.507812 18.1875 -49.757812 18.1875 -48.875 C 18.1875 -47.59375 17.9375 -46.488281 17.4375 -45.5625 C 16.945312 -44.644531 16.3125 -43.875 15.53125 -43.25 C 14.75 -42.632812 13.859375 -42.175781 12.859375 -41.875 C 11.859375 -41.570312 10.863281 -41.421875 9.875 -41.421875 C 8.351562 -41.421875 6.976562 -41.679688 5.75 -42.203125 C 4.519531 -42.734375 3.476562 -43.457031 2.625 -44.375 C 1.769531 -45.300781 1.117188 -46.382812 0.671875 -47.625 C 0.222656 -48.863281 0 -50.1875 0 -51.59375 C 0 -54.226562 0.488281 -56.554688 1.46875 -58.578125 C 2.457031 -60.597656 3.847656 -62.335938 5.640625 -63.796875 C 7.441406 -65.265625 9.597656 -66.484375 12.109375 -67.453125 C 14.628906 -68.421875 17.414062 -69.191406 20.46875 -69.765625 C 23.519531 -70.335938 26.785156 -70.742188 30.265625 -70.984375 C 33.753906 -71.222656 37.378906 -71.34375 41.140625 -71.34375 Z M 41.140625 -71.34375 "/></g></g></g><g fill="#e3bd86" fill-opacity="1"><g transform="translate(199.800788, 92.975919)"><g><path d="M 18.28125 -21.90625 C 18.28125 -20.882812 18.429688 -19.773438 18.734375 -18.578125 C 19.035156 -17.390625 19.472656 -16.191406 20.046875 -14.984375 C 20.617188 -13.773438 21.328125 -12.617188 22.171875 -11.515625 C 23.015625 -10.421875 23.984375 -9.441406 25.078125 -8.578125 C 26.171875 -7.722656 27.382812 -7.039062 28.71875 -6.53125 C 30.0625 -6.03125 31.53125 -5.78125 33.125 -5.78125 C 34.238281 -5.78125 35.269531 -5.90625 36.21875 -6.15625 C 37.175781 -6.40625 38.066406 -6.753906 38.890625 -7.203125 C 39.722656 -7.648438 40.519531 -8.164062 41.28125 -8.75 C 42.039062 -9.34375 42.800781 -9.972656 43.5625 -10.640625 L 44.765625 -9.5 C 44.035156 -8.507812 43.097656 -7.425781 41.953125 -6.25 C 40.804688 -5.070312 39.421875 -3.96875 37.796875 -2.9375 C 36.171875 -1.90625 34.273438 -1.046875 32.109375 -0.359375 C 29.953125 0.328125 27.488281 0.671875 24.71875 0.671875 C 21.945312 0.671875 19.25 0.171875 16.625 -0.828125 C 14 -1.835938 11.664062 -3.34375 9.625 -5.34375 C 7.59375 -7.34375 5.960938 -9.835938 4.734375 -12.828125 C 3.515625 -15.828125 2.90625 -19.332031 2.90625 -23.34375 C 2.90625 -26.226562 3.269531 -28.878906 4 -31.296875 C 4.738281 -33.722656 5.734375 -35.90625 6.984375 -37.84375 C 8.242188 -39.78125 9.707031 -41.476562 11.375 -42.9375 C 13.050781 -44.40625 14.8125 -45.625 16.65625 -46.59375 C 18.5 -47.570312 20.382812 -48.304688 22.3125 -48.796875 C 24.238281 -49.285156 26.09375 -49.53125 27.875 -49.53125 C 30.226562 -49.53125 32.28125 -49.273438 34.03125 -48.765625 C 35.78125 -48.265625 37.234375 -47.582031 38.390625 -46.71875 C 39.554688 -45.863281 40.425781 -44.867188 41 -43.734375 C 41.570312 -42.609375 41.859375 -41.425781 41.859375 -40.1875 C 41.859375 -38.6875 41.425781 -37.335938 40.5625 -36.140625 C 39.707031 -34.953125 38.5625 -33.914062 37.125 -33.03125 Z M 27.875 -31.59375 C 28.28125 -31.84375 28.617188 -32.085938 28.890625 -32.328125 C 29.160156 -32.566406 29.375 -32.851562 29.53125 -33.1875 C 29.695312 -33.519531 29.816406 -33.929688 29.890625 -34.421875 C 29.972656 -34.921875 30.015625 -35.535156 30.015625 -36.265625 C 30.015625 -37.066406 29.925781 -37.953125 29.75 -38.921875 C 29.570312 -39.890625 29.273438 -40.800781 28.859375 -41.65625 C 28.453125 -42.519531 27.929688 -43.238281 27.296875 -43.8125 C 26.660156 -44.382812 25.894531 -44.671875 25 -44.671875 C 23.851562 -44.671875 22.875 -44.328125 22.0625 -43.640625 C 21.257812 -42.953125 20.59375 -42.066406 20.0625 -40.984375 C 19.539062 -39.910156 19.128906 -38.679688 18.828125 -37.296875 C 18.523438 -35.910156 18.289062 -34.515625 18.125 -33.109375 C 17.96875 -31.710938 17.875 -30.367188 17.84375 -29.078125 C 17.8125 -27.796875 17.796875 -26.707031 17.796875 -25.8125 Z M 27.875 -31.59375 "/></g></g></g><g fill="#e3bd86" fill-opacity="1"><g transform="translate(245.041111, 92.975919)"><g><path d="M 27.4375 -24.71875 C 27.4375 -25.507812 27.179688 -26.113281 26.671875 -26.53125 C 26.160156 -26.945312 25.507812 -27.15625 24.71875 -27.15625 C 23.601562 -27.15625 22.546875 -26.898438 21.546875 -26.390625 C 20.546875 -25.878906 19.660156 -25.128906 18.890625 -24.140625 C 18.128906 -23.160156 17.523438 -21.945312 17.078125 -20.5 C 16.640625 -19.050781 16.421875 -17.375 16.421875 -15.46875 C 16.421875 -13.613281 16.554688 -12.082031 16.828125 -10.875 C 17.097656 -9.664062 17.460938 -8.703125 17.921875 -7.984375 C 18.378906 -7.273438 18.910156 -6.773438 19.515625 -6.484375 C 20.117188 -6.203125 20.753906 -6.0625 21.421875 -6.0625 C 22.253906 -6.0625 23.035156 -6.273438 23.765625 -6.703125 C 24.492188 -7.128906 25.128906 -7.675781 25.671875 -8.34375 C 26.210938 -9.019531 26.640625 -9.769531 26.953125 -10.59375 C 27.273438 -11.414062 27.4375 -12.242188 27.4375 -13.078125 Z M 19.859375 -45.625 C 18.773438 -45.625 17.769531 -45.492188 16.84375 -45.234375 C 15.925781 -44.984375 15.128906 -44.664062 14.453125 -44.28125 C 13.785156 -43.90625 13.257812 -43.484375 12.875 -43.015625 C 12.5 -42.554688 12.3125 -42.117188 12.3125 -41.703125 C 12.3125 -41.234375 12.554688 -40.894531 13.046875 -40.6875 C 13.546875 -40.476562 14.097656 -40.238281 14.703125 -39.96875 C 15.304688 -39.695312 15.851562 -39.3125 16.34375 -38.8125 C 16.832031 -38.320312 17.078125 -37.570312 17.078125 -36.5625 C 17.078125 -35.882812 16.941406 -35.265625 16.671875 -34.703125 C 16.398438 -34.148438 16.035156 -33.660156 15.578125 -33.234375 C 15.117188 -32.804688 14.578125 -32.472656 13.953125 -32.234375 C 13.335938 -31.992188 12.695312 -31.875 12.03125 -31.875 C 10.25 -31.875 8.804688 -32.476562 7.703125 -33.6875 C 6.609375 -34.894531 6.0625 -36.503906 6.0625 -38.515625 C 6.0625 -40.453125 6.566406 -42.113281 7.578125 -43.5 C 8.597656 -44.882812 9.925781 -46.019531 11.5625 -46.90625 C 13.207031 -47.800781 15.0625 -48.460938 17.125 -48.890625 C 19.195312 -49.316406 21.269531 -49.53125 23.34375 -49.53125 C 25.820312 -49.53125 28.1875 -49.257812 30.4375 -48.71875 C 32.695312 -48.175781 34.691406 -47.316406 36.421875 -46.140625 C 38.160156 -44.960938 39.546875 -43.46875 40.578125 -41.65625 C 41.617188 -39.84375 42.140625 -37.648438 42.140625 -35.078125 L 42.140625 -8.109375 C 42.140625 -7.828125 42.15625 -7.507812 42.1875 -7.15625 C 42.21875 -6.8125 42.296875 -6.492188 42.421875 -6.203125 C 42.546875 -5.921875 42.734375 -5.679688 42.984375 -5.484375 C 43.242188 -5.296875 43.613281 -5.203125 44.09375 -5.203125 C 44.664062 -5.203125 45.195312 -5.414062 45.6875 -5.84375 C 46.1875 -6.269531 46.625 -6.707031 47 -7.15625 L 48.203125 -6.15625 C 47.722656 -5.488281 47.148438 -4.753906 46.484375 -3.953125 C 45.816406 -3.160156 45.003906 -2.414062 44.046875 -1.71875 C 43.085938 -1.019531 41.972656 -0.429688 40.703125 0.046875 C 39.429688 0.523438 37.984375 0.765625 36.359375 0.765625 C 34.359375 0.765625 32.578125 0.171875 31.015625 -1.015625 C 29.460938 -2.210938 28.445312 -4.050781 27.96875 -6.53125 C 26.945312 -5.164062 25.882812 -4.019531 24.78125 -3.09375 C 23.6875 -2.175781 22.566406 -1.429688 21.421875 -0.859375 C 20.273438 -0.285156 19.117188 0.125 17.953125 0.375 C 16.796875 0.632812 15.628906 0.765625 14.453125 0.765625 C 12.929688 0.765625 11.453125 0.523438 10.015625 0.046875 C 8.585938 -0.429688 7.304688 -1.1875 6.171875 -2.21875 C 5.046875 -3.25 4.140625 -4.59375 3.453125 -6.25 C 2.773438 -7.90625 2.4375 -9.925781 2.4375 -12.3125 C 2.4375 -15.207031 3.007812 -17.578125 4.15625 -19.421875 C 5.300781 -21.265625 6.800781 -22.8125 8.65625 -24.0625 C 10.519531 -25.320312 12.632812 -26.398438 15 -27.296875 C 17.375 -28.191406 19.800781 -29.128906 22.28125 -30.109375 C 24.125 -30.835938 25.46875 -31.925781 26.3125 -33.375 C 27.15625 -34.820312 27.578125 -36.3125 27.578125 -37.84375 C 27.578125 -40.195312 26.882812 -42.082031 25.5 -43.5 C 24.125 -44.914062 22.242188 -45.625 19.859375 -45.625 Z M 19.859375 -45.625 "/></g></g></g><g fill="#e3bd86" fill-opacity="1"><g transform="translate(293.717408, 92.975919)"><g><path d="M 46.71875 -4.203125 C 46.71875 -3.785156 46.65625 -3.289062 46.53125 -2.71875 C 46.40625 -2.144531 46.09375 -1.601562 45.59375 -1.09375 C 45.101562 -0.582031 44.363281 -0.144531 43.375 0.21875 C 42.394531 0.582031 41.0625 0.765625 39.375 0.765625 C 37.6875 0.765625 36.359375 0.566406 35.390625 0.171875 C 34.421875 -0.222656 33.6875 -0.691406 33.1875 -1.234375 C 32.695312 -1.773438 32.382812 -2.332031 32.25 -2.90625 C 32.125 -3.476562 32.0625 -3.941406 32.0625 -4.296875 L 32.0625 -38.03125 C 32.0625 -38.476562 32 -38.929688 31.875 -39.390625 C 31.75 -39.859375 31.554688 -40.28125 31.296875 -40.65625 C 31.046875 -41.039062 30.726562 -41.351562 30.34375 -41.59375 C 29.96875 -41.832031 29.523438 -41.953125 29.015625 -41.953125 C 28.148438 -41.953125 27.304688 -41.703125 26.484375 -41.203125 C 25.660156 -40.710938 24.890625 -40.148438 24.171875 -39.515625 C 23.453125 -38.878906 22.828125 -38.242188 22.296875 -37.609375 C 21.773438 -36.972656 21.40625 -36.492188 21.1875 -36.171875 L 21.1875 -4.203125 C 21.1875 -3.785156 21.125 -3.289062 21 -2.71875 C 20.875 -2.144531 20.5625 -1.601562 20.0625 -1.09375 C 19.570312 -0.582031 18.84375 -0.144531 17.875 0.21875 C 16.90625 0.582031 15.578125 0.765625 13.890625 0.765625 C 12.203125 0.765625 10.875 0.566406 9.90625 0.171875 C 8.9375 -0.222656 8.195312 -0.691406 7.6875 -1.234375 C 7.175781 -1.773438 6.851562 -2.332031 6.71875 -2.90625 C 6.59375 -3.476562 6.53125 -3.941406 6.53125 -4.296875 L 6.53125 -41.140625 C 6.53125 -42.054688 6.316406 -42.859375 5.890625 -43.546875 C 5.460938 -44.234375 4.738281 -44.578125 3.71875 -44.578125 C 3.175781 -44.578125 2.710938 -44.476562 2.328125 -44.28125 C 1.953125 -44.09375 1.539062 -43.820312 1.09375 -43.46875 L 0.09375 -44.671875 C 0.820312 -45.273438 1.640625 -45.867188 2.546875 -46.453125 C 3.453125 -47.046875 4.429688 -47.5625 5.484375 -48 C 6.535156 -48.445312 7.664062 -48.8125 8.875 -49.09375 C 10.082031 -49.382812 11.351562 -49.53125 12.6875 -49.53125 C 14.757812 -49.53125 16.367188 -49.1875 17.515625 -48.5 C 18.660156 -47.820312 19.503906 -47.003906 20.046875 -46.046875 C 20.585938 -45.097656 20.910156 -44.101562 21.015625 -43.0625 C 21.128906 -42.03125 21.1875 -41.164062 21.1875 -40.46875 C 22.6875 -42.15625 24.296875 -43.664062 26.015625 -45 C 26.710938 -45.570312 27.484375 -46.128906 28.328125 -46.671875 C 29.171875 -47.210938 30.035156 -47.695312 30.921875 -48.125 C 31.816406 -48.550781 32.738281 -48.890625 33.6875 -49.140625 C 34.644531 -49.398438 35.601562 -49.53125 36.5625 -49.53125 C 38.40625 -49.53125 39.976562 -49.195312 41.28125 -48.53125 C 42.582031 -47.863281 43.628906 -47.0625 44.421875 -46.125 C 45.222656 -45.1875 45.804688 -44.195312 46.171875 -43.15625 C 46.535156 -42.125 46.71875 -41.226562 46.71875 -40.46875 C 48.25 -42.15625 49.859375 -43.664062 51.546875 -45 C 52.242188 -45.570312 53.003906 -46.128906 53.828125 -46.671875 C 54.660156 -47.210938 55.53125 -47.695312 56.4375 -48.125 C 57.34375 -48.550781 58.265625 -48.890625 59.203125 -49.140625 C 60.140625 -49.398438 61.082031 -49.53125 62.03125 -49.53125 C 63.882812 -49.53125 65.460938 -49.1875 66.765625 -48.5 C 68.066406 -47.820312 69.113281 -46.925781 69.90625 -45.8125 C 70.707031 -44.695312 71.289062 -43.4375 71.65625 -42.03125 C 72.019531 -40.632812 72.203125 -39.238281 72.203125 -37.84375 L 72.203125 -8.296875 C 72.203125 -8.015625 72.21875 -7.707031 72.25 -7.375 C 72.28125 -7.039062 72.359375 -6.722656 72.484375 -6.421875 C 72.617188 -6.117188 72.816406 -5.867188 73.078125 -5.671875 C 73.347656 -5.484375 73.707031 -5.390625 74.15625 -5.390625 C 74.757812 -5.390625 75.300781 -5.601562 75.78125 -6.03125 C 76.257812 -6.46875 76.707031 -6.90625 77.125 -7.34375 L 78.265625 -6.34375 C 77.816406 -5.675781 77.226562 -4.9375 76.5 -4.125 C 75.769531 -3.3125 74.898438 -2.539062 73.890625 -1.8125 C 72.890625 -1.082031 71.726562 -0.472656 70.40625 0.015625 C 69.09375 0.515625 67.609375 0.765625 65.953125 0.765625 C 64.554688 0.765625 63.335938 0.582031 62.296875 0.21875 C 61.265625 -0.144531 60.390625 -0.632812 59.671875 -1.25 C 58.960938 -1.875 58.429688 -2.609375 58.078125 -3.453125 C 57.722656 -4.296875 57.546875 -5.195312 57.546875 -6.15625 L 57.546875 -38.03125 C 57.546875 -38.476562 57.484375 -38.929688 57.359375 -39.390625 C 57.234375 -39.859375 57.050781 -40.28125 56.8125 -40.65625 C 56.570312 -41.039062 56.257812 -41.351562 55.875 -41.59375 C 55.5 -41.832031 55.054688 -41.953125 54.546875 -41.953125 C 53.679688 -41.953125 52.828125 -41.703125 51.984375 -41.203125 C 51.148438 -40.710938 50.375 -40.148438 49.65625 -39.515625 C 48.9375 -38.878906 48.320312 -38.242188 47.8125 -37.609375 C 47.300781 -36.972656 46.9375 -36.492188 46.71875 -36.171875 Z M 46.71875 -4.203125 "/></g></g></g><g mask="url(#e76fbb557f)"><g transform="matrix(1, 0, 0, 1, 185, 98)"><g clip-path="url(#c7c5ce96c0)"><g fill="#e3bd86" fill-opacity="1"><g transform="translate(0.432527, 11.800513)"><g><path d="M 0.703125 -0.6875 L 0.96875 -2.9375 C 1.375 -2.644531 1.78125 -2.4375 2.1875 -2.3125 C 2.59375 -2.1875 2.957031 -2.113281 3.28125 -2.09375 C 3.613281 -2.070312 3.859375 -2.066406 4.015625 -2.078125 C 4.335938 -2.097656 4.609375 -2.207031 4.828125 -2.40625 C 5.054688 -2.613281 5.15625 -2.863281 5.125 -3.15625 C 5.101562 -3.46875 4.988281 -3.703125 4.78125 -3.859375 C 4.570312 -4.015625 4.316406 -4.144531 4.015625 -4.25 C 3.460938 -4.457031 2.941406 -4.695312 2.453125 -4.96875 C 1.972656 -5.25 1.585938 -5.59375 1.296875 -6 C 1.003906 -6.40625 0.859375 -6.90625 0.859375 -7.5 C 0.859375 -8.101562 0.984375 -8.644531 1.234375 -9.125 C 1.484375 -9.613281 1.835938 -10 2.296875 -10.28125 C 2.753906 -10.570312 3.28125 -10.734375 3.875 -10.765625 C 4.15625 -10.785156 4.492188 -10.773438 4.890625 -10.734375 C 5.296875 -10.691406 5.84375 -10.550781 6.53125 -10.3125 L 6.265625 -8.25 C 5.679688 -8.488281 5.210938 -8.625 4.859375 -8.65625 C 4.515625 -8.695312 4.253906 -8.710938 4.078125 -8.703125 C 3.703125 -8.679688 3.425781 -8.550781 3.25 -8.3125 C 3.070312 -8.070312 2.992188 -7.800781 3.015625 -7.5 C 3.046875 -7.207031 3.175781 -6.984375 3.40625 -6.828125 C 3.632812 -6.671875 3.90625 -6.539062 4.21875 -6.4375 C 4.769531 -6.226562 5.28125 -5.976562 5.75 -5.6875 C 6.21875 -5.394531 6.59375 -5.039062 6.875 -4.625 C 7.164062 -4.207031 7.3125 -3.71875 7.3125 -3.15625 C 7.3125 -2.5625 7.179688 -2.023438 6.921875 -1.546875 C 6.660156 -1.078125 6.285156 -0.695312 5.796875 -0.40625 C 5.316406 -0.113281 4.742188 0.0507812 4.078125 0.09375 C 3.878906 0.101562 3.609375 0.09375 3.265625 0.0625 C 2.921875 0.0390625 2.53125 -0.0234375 2.09375 -0.140625 C 1.65625 -0.253906 1.191406 -0.4375 0.703125 -0.6875 Z M 0.703125 -0.6875 "/></g></g></g><g clip-path="url(#b5d1c3acca)"><g fill="#e3bd86" fill-opacity="1"><g transform="translate(12.082671, 11.800513)"><g><path d="M 6.34375 0.15625 C 5.425781 0.15625 4.617188 0 3.921875 -0.3125 C 3.234375 -0.625 2.660156 -1.039062 2.203125 -1.5625 C 1.742188 -2.082031 1.398438 -2.671875 1.171875 -3.328125 C 0.941406 -3.992188 0.828125 -4.671875 0.828125 -5.359375 C 0.828125 -6.054688 0.941406 -6.734375 1.171875 -7.390625 C 1.398438 -8.046875 1.742188 -8.632812 2.203125 -9.15625 C 2.660156 -9.675781 3.234375 -10.09375 3.921875 -10.40625 C 4.617188 -10.71875 5.425781 -10.875 6.34375 -10.875 C 7.257812 -10.875 8.0625 -10.71875 8.75 -10.40625 C 9.445312 -10.09375 10.023438 -9.675781 10.484375 -9.15625 C 10.941406 -8.632812 11.285156 -8.046875 11.515625 -7.390625 C 11.742188 -6.734375 11.859375 -6.054688 11.859375 -5.359375 C 11.859375 -4.671875 11.742188 -3.992188 11.515625 -3.328125 C 11.285156 -2.671875 10.941406 -2.082031 10.484375 -1.5625 C 10.023438 -1.039062 9.445312 -0.625 8.75 -0.3125 C 8.0625 0 7.257812 0.15625 6.34375 0.15625 Z M 6.34375 -2.0625 C 6.945312 -2.0625 7.46875 -2.179688 7.90625 -2.421875 C 8.34375 -2.660156 8.691406 -2.976562 8.953125 -3.375 C 9.210938 -3.769531 9.382812 -4.203125 9.46875 -4.671875 C 9.5625 -5.140625 9.5625 -5.609375 9.46875 -6.078125 C 9.382812 -6.546875 9.210938 -6.972656 8.953125 -7.359375 C 8.691406 -7.753906 8.34375 -8.070312 7.90625 -8.3125 C 7.46875 -8.550781 6.945312 -8.671875 6.34375 -8.671875 C 5.726562 -8.671875 5.203125 -8.550781 4.765625 -8.3125 C 4.328125 -8.070312 3.976562 -7.753906 3.71875 -7.359375 C 3.457031 -6.972656 3.28125 -6.546875 3.1875 -6.078125 C 3.101562 -5.609375 3.101562 -5.140625 3.1875 -4.671875 C 3.28125 -4.203125 3.457031 -3.769531 3.71875 -3.375 C 3.976562 -2.976562 4.328125 -2.660156 4.765625 -2.421875 C 5.203125 -2.179688 5.726562 -2.0625 6.34375 -2.0625 Z M 6.34375 -2.0625 "/></g></g></g></g><g fill="#e3bd86" fill-opacity="1"><g transform="translate(28.487904, 11.800513)"><g><path d="M 5.09375 0 L 2.953125 0 L 2.953125 -8.546875 L 0.296875 -8.546875 L 0.296875 -10.671875 L 7.765625 -10.671875 L 7.765625 -8.546875 L 5.09375 -8.546875 Z M 5.09375 0 "/></g></g></g><g fill="#e3bd86" fill-opacity="1"><g transform="translate(40.407202, 11.800513)"><g><path d="M 8.875 -3.71875 C 8.875 -2.988281 8.734375 -2.363281 8.453125 -1.84375 C 8.171875 -1.332031 7.800781 -0.921875 7.34375 -0.609375 C 6.882812 -0.304688 6.378906 -0.101562 5.828125 0 C 5.285156 0.113281 4.734375 0.113281 4.171875 0 C 3.617188 -0.101562 3.113281 -0.304688 2.65625 -0.609375 C 2.195312 -0.921875 1.828125 -1.332031 1.546875 -1.84375 C 1.273438 -2.363281 1.140625 -2.988281 1.140625 -3.71875 L 1.140625 -10.6875 L 3.28125 -10.6875 L 3.28125 -3.734375 C 3.28125 -3.285156 3.394531 -2.925781 3.625 -2.65625 C 3.863281 -2.394531 4.15625 -2.21875 4.5 -2.125 C 4.84375 -2.03125 5.1875 -2.03125 5.53125 -2.125 C 5.875 -2.21875 6.160156 -2.394531 6.390625 -2.65625 C 6.628906 -2.925781 6.75 -3.285156 6.75 -3.734375 L 6.75 -10.6875 L 8.875 -10.6875 Z M 8.875 -3.71875 "/></g></g></g><g clip-path="url(#ffb24e8e3e)"><g fill="#e3bd86" fill-opacity="1"><g transform="translate(54.180684, 11.800513)"><g><path d="M 3.328125 -5.8125 L 3.328125 0 L 1.203125 0 L 1.203125 -10.921875 L 1.765625 -10.921875 L 7.15625 -4.640625 L 7.15625 -10.671875 L 9.3125 -10.671875 L 9.3125 0.21875 L 8.75 0.21875 Z M 3.328125 -5.8125 "/></g></g></g></g><g fill="#e3bd86" fill-opacity="1"><g transform="translate(68.44762, 11.800513)"><g><path d="M 6.734375 0 L 1.203125 0 L 1.203125 -10.6875 L 6.546875 -10.6875 L 6.546875 -8.546875 L 3.328125 -8.546875 L 3.328125 -6.421875 L 6.140625 -6.421875 L 6.140625 -4.28125 L 3.328125 -4.28125 L 3.328125 -2.140625 L 6.734375 -2.140625 Z M 6.734375 0 "/></g></g></g><g clip-path="url(#7396b9bb1a)"><g fill="#e3bd86" fill-opacity="1"><g transform="translate(79.723929, 11.800513)"><g><path d="M 8 -8.203125 C 7.800781 -8.316406 7.554688 -8.421875 7.265625 -8.515625 C 6.984375 -8.617188 6.609375 -8.671875 6.140625 -8.671875 C 5.535156 -8.671875 5.019531 -8.550781 4.59375 -8.3125 C 4.164062 -8.082031 3.820312 -7.769531 3.5625 -7.375 C 3.300781 -6.988281 3.125 -6.5625 3.03125 -6.09375 C 2.945312 -5.632812 2.945312 -5.171875 3.03125 -4.703125 C 3.125 -4.242188 3.300781 -3.820312 3.5625 -3.4375 C 3.820312 -3.050781 4.164062 -2.738281 4.59375 -2.5 C 5.019531 -2.269531 5.535156 -2.15625 6.140625 -2.15625 C 6.609375 -2.15625 7.019531 -2.207031 7.375 -2.3125 C 7.726562 -2.425781 8.003906 -2.53125 8.203125 -2.625 L 8.5 -0.421875 C 8.164062 -0.285156 7.785156 -0.175781 7.359375 -0.09375 C 6.929688 -0.0078125 6.523438 0.03125 6.140625 0.03125 C 5.234375 0.03125 4.441406 -0.117188 3.765625 -0.421875 C 3.085938 -0.722656 2.519531 -1.132812 2.0625 -1.65625 C 1.613281 -2.175781 1.273438 -2.753906 1.046875 -3.390625 C 0.828125 -4.035156 0.71875 -4.703125 0.71875 -5.390625 C 0.71875 -6.085938 0.828125 -6.753906 1.046875 -7.390625 C 1.273438 -8.035156 1.613281 -8.613281 2.0625 -9.125 C 2.519531 -9.644531 3.085938 -10.054688 3.765625 -10.359375 C 4.441406 -10.671875 5.234375 -10.828125 6.140625 -10.828125 C 6.921875 -10.828125 7.625 -10.6875 8.25 -10.40625 Z M 8 -8.203125 "/></g></g></g></g><g fill="#e3bd86" fill-opacity="1"><g transform="translate(92.465643, 11.800513)"><g/></g></g><g fill="#e3bd86" fill-opacity="1"><g transform="translate(100.452268, 11.800513)"><g><path d="M 0.703125 -0.6875 L 0.96875 -2.9375 C 1.375 -2.644531 1.78125 -2.4375 2.1875 -2.3125 C 2.59375 -2.1875 2.957031 -2.113281 3.28125 -2.09375 C 3.613281 -2.070312 3.859375 -2.066406 4.015625 -2.078125 C 4.335938 -2.097656 4.609375 -2.207031 4.828125 -2.40625 C 5.054688 -2.613281 5.15625 -2.863281 5.125 -3.15625 C 5.101562 -3.46875 4.988281 -3.703125 4.78125 -3.859375 C 4.570312 -4.015625 4.316406 -4.144531 4.015625 -4.25 C 3.460938 -4.457031 2.941406 -4.695312 2.453125 -4.96875 C 1.972656 -5.25 1.585938 -5.59375 1.296875 -6 C 1.003906 -6.40625 0.859375 -6.90625 0.859375 -7.5 C 0.859375 -8.101562 0.984375 -8.644531 1.234375 -9.125 C 1.484375 -9.613281 1.835938 -10 2.296875 -10.28125 C 2.753906 -10.570312 3.28125 -10.734375 3.875 -10.765625 C 4.15625 -10.785156 4.492188 -10.773438 4.890625 -10.734375 C 5.296875 -10.691406 5.84375 -10.550781 6.53125 -10.3125 L 6.265625 -8.25 C 5.679688 -8.488281 5.210938 -8.625 4.859375 -8.65625 C 4.515625 -8.695312 4.253906 -8.710938 4.078125 -8.703125 C 3.703125 -8.679688 3.425781 -8.550781 3.25 -8.3125 C 3.070312 -8.070312 2.992188 -7.800781 3.015625 -7.5 C 3.046875 -7.207031 3.175781 -6.984375 3.40625 -6.828125 C 3.632812 -6.671875 3.90625 -6.539062 4.21875 -6.4375 C 4.769531 -6.226562 5.28125 -5.976562 5.75 -5.6875 C 6.21875 -5.394531 6.59375 -5.039062 6.875 -4.625 C 7.164062 -4.207031 7.3125 -3.71875 7.3125 -3.15625 C 7.3125 -2.5625 7.179688 -2.023438 6.921875 -1.546875 C 6.660156 -1.078125 6.285156 -0.695312 5.796875 -0.40625 C 5.316406 -0.113281 4.742188 0.0507812 4.078125 0.09375 C 3.878906 0.101562 3.609375 0.09375 3.265625 0.0625 C 2.921875 0.0390625 2.53125 -0.0234375 2.09375 -0.140625 C 1.65625 -0.253906 1.191406 -0.4375 0.703125 -0.6875 Z M 0.703125 -0.6875 "/></g></g></g><g clip-path="url(#622abe126f)"><g fill="#e3bd86" fill-opacity="1"><g transform="translate(112.10241, 11.800513)"><g><path d="M 0.234375 0 L 4.734375 -11.078125 L 4.96875 -11.078125 L 9.46875 0 L 7.0625 0 L 6.625 -1.15625 L 3.078125 -1.15625 L 2.65625 0 Z M 3.859375 -3.15625 L 5.828125 -3.15625 L 4.859375 -5.9375 Z M 3.859375 -3.15625 "/></g></g></g></g><g fill="#e3bd86" fill-opacity="1"><g transform="translate(125.606735, 11.800513)"><g><path d="M 6.515625 0 L 4.359375 -4.078125 L 3.328125 -4.078125 L 3.328125 0 L 1.203125 0 L 1.203125 -10.6875 L 5.40625 -10.6875 C 6.050781 -10.6875 6.59375 -10.554688 7.03125 -10.296875 C 7.476562 -10.035156 7.828125 -9.691406 8.078125 -9.265625 C 8.328125 -8.835938 8.476562 -8.375 8.53125 -7.875 C 8.59375 -7.382812 8.554688 -6.90625 8.421875 -6.4375 C 8.285156 -5.96875 8.054688 -5.550781 7.734375 -5.1875 C 7.410156 -4.820312 6.984375 -4.5625 6.453125 -4.40625 L 8.9375 0 Z M 3.328125 -6.15625 L 5.21875 -6.15625 C 5.507812 -6.15625 5.738281 -6.234375 5.90625 -6.390625 C 6.082031 -6.554688 6.203125 -6.757812 6.265625 -7 C 6.328125 -7.238281 6.328125 -7.476562 6.265625 -7.71875 C 6.203125 -7.957031 6.082031 -8.15625 5.90625 -8.3125 C 5.738281 -8.46875 5.507812 -8.546875 5.21875 -8.546875 L 3.328125 -8.546875 Z M 3.328125 -6.15625 "/></g></g></g><g clip-path="url(#7a40febfe6)"><g fill="#e3bd86" fill-opacity="1"><g transform="translate(138.512935, 11.800513)"><g><path d="M 0.234375 0 L 4.734375 -11.078125 L 4.96875 -11.078125 L 9.46875 0 L 7.0625 0 L 6.625 -1.15625 L 3.078125 -1.15625 L 2.65625 0 Z M 3.859375 -3.15625 L 5.828125 -3.15625 L 4.859375 -5.9375 Z M 3.859375 -3.15625 "/></g></g></g></g><g fill="#e3bd86" fill-opacity="1"><g transform="translate(152.01726, 11.800513)"><g><path d="M 3.8125 0 L 3.8125 -4.8125 L 0.09375 -10.6875 L 2.6875 -10.6875 L 4.875 -7.015625 L 7.0625 -10.6875 L 9.671875 -10.6875 L 5.9375 -4.8125 L 5.9375 0 Z M 3.8125 0 "/></g></g></g><g clip-path="url(#7feaf681b4)"><g fill="#e3bd86" fill-opacity="1"><g transform="translate(165.461778, 11.800513)"><g><path d="M 0.234375 0 L 4.734375 -11.078125 L 4.96875 -11.078125 L 9.46875 0 L 7.0625 0 L 6.625 -1.15625 L 3.078125 -1.15625 L 2.65625 0 Z M 3.859375 -3.15625 L 5.828125 -3.15625 L 4.859375 -5.9375 Z M 3.859375 -3.15625 "/></g></g></g></g></g></g></g></svg>